<?xml version="1.0" encoding="UTF-8"?>
<!DOCTYPE svg PUBLIC "-//W3C//DTD SVG 1.1//EN" "http://www.w3.org/Graphics/SVG/1.1/DTD/svg11.dtd">
<!-- Creator: CorelDRAW X7 -->
<svg xmlns="http://www.w3.org/2000/svg" xml:space="preserve" width="0.262138in" height="0.308701in" version="1.1" style="shape-rendering:geometricPrecision; text-rendering:geometricPrecision; image-rendering:optimizeQuality; fill-rule:evenodd; clip-rule:evenodd"
viewBox="0 0 262 309"
 xmlns:xlink="http://www.w3.org/1999/xlink">
 <defs>
  <style type="text/css">
   <![CDATA[
    .fil2 {fill:#FFF1B1}
    .fil6 {fill:#DC9B1D}
    .fil7 {fill:#D18E21}
    .fil5 {fill:#A6CD55}
    .fil3 {fill:#98C84E}
    .fil4 {fill:#86B943}
    .fil1 {fill:#006E6C}
    .fil0 {fill:#005F5D}
   ]]>
  </style>
 </defs>
 <g id="Layer_x0020_1">
  <metadata id="CorelCorpID_0Corel-Layer"/>
  <g id="_563343608">
   <path class="fil0" d="M159 11l0 0 0 0zm40 -11c-3,0 -7,0 -11,1 -2,0 -4,1 -7,1 -2,1 -5,2 -7,3 -3,1 -5,2 -8,3 -2,1 -5,2 -7,3l0 0c-1,1 -2,2 -3,2 -1,1 -3,2 -4,2 -1,1 -2,2 -3,3 -3,1 -5,3 -7,5 -5,3 -9,7 -14,11 -4,3 -9,7 -13,11 -5,3 -10,6 -14,10 -19,13 -38,27 -55,42 -10,10 -19,21 -27,33 -6,10 -11,20 -14,30 -2,7 -3,14 -4,22 -1,7 -1,14 -1,22 1,7 2,14 4,20 2,7 5,13 8,19 3,6 6,12 11,17 4,6 9,11 13,16 11,9 22,16 35,22 6,3 13,5 20,7 6,2 14,3 21,3 3,1 6,1 10,1 4,0 8,0 12,-1 7,0 14,-2 21,-3 14,-3 27,-9 39,-16 12,-7 22,-16 31,-27 4,-5 8,-11 11,-17 4,-6 6,-13 9,-20 2,-6 4,-14 5,-22 1,-8 2,-17 3,-28 0,-5 0,-11 1,-16 0,-4 0,-8 0,-12 1,-10 2,-19 3,-27l0 0c0,-4 1,-7 1,-11 2,-14 4,-28 4,-43 0,-9 -2,-18 -4,-26 -2,-3 -3,-7 -5,-11 -2,-3 -4,-6 -7,-9 -4,-5 -10,-10 -16,-13 -6,-3 -13,-5 -20,-6 -4,-1 -7,-1 -11,-1l0 0z"/>
   <g>
    <path class="fil0" d="M159 11l0 0 0 0zm27 -9c-2,0 -4,0 -5,1 -3,0 -5,1 -7,2 -3,1 -5,2 -8,3 -2,1 -5,2 -7,3l0 0c-1,1 -2,2 -3,2 -1,1 -3,2 -4,2l0 1c0,0 0,0 0,0 0,1 1,1 2,1 2,-1 4,-2 5,-3 2,0 4,-1 6,-2 3,-2 7,-3 10,-4l0 0c7,-3 14,-4 21,-5 4,0 7,0 10,0 2,0 3,0 5,0 2,1 3,1 5,1l0 0c0,0 1,0 1,0 0,0 0,0 0,0 1,0 0,0 0,-1 -2,0 -5,-1 -8,-1 -2,0 -5,-1 -8,-1 -1,0 -3,0 -5,0 -3,0 -7,0 -10,1z"/>
    <path class="fil0" d="M159 11l0 0 0 0zm38 -9c-2,0 -4,0 -5,0 -2,0 -4,0 -6,0 -4,1 -7,2 -11,3 0,0 -1,0 -1,0 -3,1 -5,2 -8,3 -2,1 -5,2 -7,3l0 0c-1,1 -2,2 -3,2 -1,1 -2,1 -3,2 0,0 0,0 1,0 0,1 0,1 0,0 2,0 3,-1 5,-2 1,-1 3,-1 4,-2 3,-2 6,-3 9,-4l0 0c2,-1 3,-1 5,-2 2,0 3,0 5,-1 3,0 7,-1 10,-1l0 0c2,0 4,0 5,0 1,0 1,0 1,-1 0,0 0,0 0,0l-1 0z"/>
    <polygon class="fil0" points="172,7 173,7 "/>
    <polygon class="fil0" points="172,7 172,7 "/>
    <path class="fil0" d="M179 5c-7,1 -14,3 -20,7 0,0 0,0 0,0 0,0 1,1 1,0 1,0 2,-1 4,-2 1,0 3,-1 4,-2l0 1c2,-1 4,-2 5,-2 2,0 4,-1 6,-1 0,0 0,0 0,-1 0,0 0,0 0,0l0 0z"/>
    <path class="fil0" d="M159 11l0 0 0 0zm16 -5c-2,0 -4,0 -6,1 -1,0 -2,1 -3,1 -2,1 -5,2 -7,3l0 0c0,1 -1,1 -1,1 -1,0 -1,0 -1,1l0 0 0 0 0 0 1 0c1,-1 3,-2 4,-2 2,-1 4,-2 6,-3l-1 0c2,0 3,0 4,-1 1,0 3,0 4,-1 0,0 0,0 0,0 0,0 0,0 0,0l0 0z"/>
    <path class="fil0" d="M171 6c-1,1 -3,1 -4,2 -2,1 -4,1 -5,2 0,0 0,0 0,1 0,0 0,0 0,0 3,-1 5,-2 8,-3l0 0 1 -1 1 0 0 0 0 -1 -1 0 0 0z"/>
    <path class="fil1" d="M227 206l0 1 0 -1zm2 -6c-1,2 -1,4 -2,6 0,2 -1,3 -1,5 -1,1 0,2 1,2 0,1 2,0 2,-1 1,-1 1,-4 2,-6 0,-2 1,-4 1,-6 0,-1 0,-1 -1,-2l-1 0c0,0 -1,1 -1,2z"/>
    <path class="fil1" d="M237 193c0,2 0,4 0,6 -1,1 0,2 1,2 1,0 2,0 2,-1 1,-2 1,-4 1,-6 0,-1 0,-2 -2,-2l0 0c-1,0 -2,0 -2,1z"/>
    <path class="fil1" d="M238 209c-1,3 -1,5 -1,8 -1,1 0,2 1,2 1,0 2,0 2,-1 1,-3 1,-6 1,-8 1,-1 0,-2 -1,-3l0 0c-1,0 -2,1 -2,2z"/>
    <path class="fil1" d="M233 218c0,1 -1,2 -1,3 -1,2 -2,5 -3,7 0,1 0,2 1,2 1,0 2,0 2,-1 2,-3 3,-7 4,-10 0,-1 -1,-2 -1,-2l-1 0c0,0 -1,0 -1,1z"/>
    <path class="fil1" d="M227 241l0 0 0 0zm3 -6c-1,0 -1,1 -1,1l0 0 0 0c-1,2 -1,4 -2,6l0 0c-1,0 -1,0 -1,1 0,0 0,1 1,1 0,0 1,1 1,1 1,0 1,-1 1,-1 1,-1 2,-2 2,-3 1,-2 1,-3 2,-4 0,-1 0,-1 -1,-1 0,-1 0,-1 -1,-1l0 0c-1,0 -1,0 -1,0z"/>
    <path class="fil1" d="M222 229l0 -1 0 1zm0 -2c0,0 0,1 0,1 0,0 0,0 0,0l0 0c-1,2 -1,4 -2,6 0,0 0,0 0,1 0,0 0,1 1,1 1,0 2,0 2,-1 1,-2 2,-4 2,-6 0,-1 0,-1 0,-2 0,0 -1,0 -1,0l-1 0c0,0 0,0 -1,0z"/>
    <path class="fil1" d="M220 244c-1,0 -1,0 -1,1 -2,1 -3,3 -4,5 0,0 0,1 0,1 0,0 1,1 1,1 1,0 1,0 1,0 1,0 1,-1 1,-1 1,-1 1,-2 2,-3l0 0c0,0 1,-1 1,-1 0,-1 0,-1 0,-2 0,0 0,0 0,-1 -1,0 -1,0 -1,0l0 0z"/>
    <path class="fil1" d="M219 253c0,1 -1,3 -2,4 0,0 0,1 0,1 0,1 1,1 1,1 0,1 1,1 1,1 1,-1 1,-1 1,-1 1,-2 2,-3 3,-4 0,-1 0,-2 -1,-3 -1,0 -1,0 -1,0 -1,0 -1,0 -2,1z"/>
    <path class="fil1" d="M208 248c-1,1 -3,3 -4,4 0,0 0,1 0,1 0,1 0,1 1,2 0,0 2,0 2,-1 1,-1 2,-3 3,-4 1,-1 1,-2 0,-3 0,0 -1,0 -1,0 -1,0 -1,0 -1,1z"/>
    <path class="fil1" d="M195 270l0 0 0 0zm5 -5c-1,1 -2,2 -2,3 -1,1 -2,1 -3,2l0 0 0 1c-1,0 -1,0 -1,0 0,0 0,1 0,1 1,0 2,1 2,0 2,-2 3,-4 5,-6 0,0 0,-1 0,-1l-1 0c0,0 0,0 0,0z"/>
    <path class="fil1" d="M233 171c0,2 0,4 0,5 0,1 0,2 1,2 1,0 2,-1 2,-1 0,-2 0,-4 0,-5 0,-1 0,-2 -1,-2l0 0c-1,0 -2,1 -2,1z"/>
    <path class="fil1" d="M242 170c0,0 0,1 0,1 0,2 -1,4 -1,6 0,1 1,2 2,2 1,0 2,0 2,-1 0,-2 0,-4 0,-6 0,0 0,-1 0,-1 0,-1 -1,-1 -1,-1l0 0c-1,0 -1,0 -2,0z"/>
    <path class="fil1" d="M238 155l0 0 0 0 0 0zm2 -3c-1,0 -1,1 -2,1 0,0 0,1 0,1l0 1 0 0 0 0 0 0 0 0c0,3 0,5 0,7 0,1 0,1 0,2 0,0 1,0 1,0 1,1 2,0 2,-1 0,-3 1,-6 1,-9 0,0 -1,-1 -1,-1 0,0 -1,-1 -1,-1l0 0z"/>
    <path class="fil1" d="M230 155l0 1 0 -1zm1 -3c0,0 -1,0 -1,0 0,1 0,1 0,1 0,1 0,2 0,2l0 0c0,2 0,4 0,5 0,1 0,1 0,1 0,1 0,1 1,1 0,0 1,0 1,0 0,-1 0,-1 0,-1 0,-3 1,-5 1,-8 0,0 -1,-1 -1,-1 0,0 0,0 -1,0l0 0z"/>
    <path class="fil1" d="M228 178c0,2 0,4 -1,6 0,1 1,2 2,2 1,0 1,0 2,-1 0,-2 0,-4 0,-6 0,-1 0,-1 0,-2 0,0 -1,0 -1,0l0 0c-1,0 -2,0 -2,1z"/>
    <path class="fil1" d="M250 130l-1 0 1 0 0 0zm-2 -3c0,0 -1,0 -1,1 -1,2 -1,5 -2,7 0,1 1,2 1,2 1,0 2,0 2,-1 1,-2 1,-4 1,-6l0 1 1 -1 0 0 0 0c0,0 0,-1 0,-1 0,-1 0,-1 0,-1 0,-1 0,-1 -1,-1 0,0 0,0 0,0 -1,0 -1,0 -1,0z"/>
    <path class="fil1" d="M250 103c-1,3 -1,5 -2,7 0,0 1,1 2,1 0,1 1,0 1,-1 1,-2 1,-4 1,-6 0,-1 0,-2 -1,-2l0 0c-1,0 -1,1 -1,1z"/>
    <path class="fil1" d="M254 85c0,2 0,3 0,4 0,1 0,1 0,1 0,1 0,1 1,1 0,0 1,0 1,0 0,-1 0,-1 0,-1 0,-2 1,-3 1,-4 0,0 0,-1 -1,-1 0,0 0,-1 -1,-1l0 0c0,0 -1,1 -1,1z"/>
    <path class="fil1" d="M242 115l0 0 0 0zm1 -3c0,0 -1,1 -1,1 0,0 0,1 0,1 0,1 0,1 0,1 0,2 -1,4 -1,7 0,0 1,1 1,1 1,1 2,0 2,-1 1,-3 1,-5 1,-8 0,0 0,-1 -1,-1 0,0 0,-1 -1,-1l0 0z"/>
    <path class="fil1" d="M115 298l0 0 0 0zm-6 -1c-1,0 -1,1 -1,1 -1,1 0,2 1,2 1,1 2,1 4,1 1,0 3,0 4,0 1,0 2,-1 2,-2 -1,0 -1,-1 -2,-1 -1,0 -1,0 -2,0 -2,0 -3,0 -4,-1 -1,0 -1,0 -1,0 0,0 -1,0 -1,0 0,0 0,0 0,0z"/>
    <path class="fil1" d="M118 291c0,1 0,2 1,2 2,0 3,1 4,1 1,0 2,-1 2,-2 0,0 0,-1 -1,-1 -2,-1 -3,-1 -4,-1l-1 0c0,0 -1,0 -1,1z"/>
    <path class="fil1" d="M126 300c-1,1 0,2 1,2 0,0 1,0 2,0 1,0 1,0 1,-1 1,-1 0,-1 -1,-1 0,-1 -1,-1 -2,-1l0 0c-1,0 -1,1 -1,1z"/>
    <path class="fil1" d="M145 291c0,0 -1,0 -2,0 0,0 -1,1 -1,1 0,1 0,1 0,2 0,0 1,0 1,1 1,0 1,0 2,0 0,-1 1,-1 1,-1 1,0 1,0 1,-1 1,0 1,-1 0,-1 0,-1 0,-1 0,-1 -1,0 -1,0 -1,0 0,0 -1,0 -1,0z"/>
    <path class="fil1" d="M161 293c-1,0 -2,1 -2,1 -1,0 -3,0 -4,0 -1,0 -1,1 -1,2 0,0 0,1 1,1 2,0 4,0 6,-1 1,0 1,0 1,-1 0,0 1,0 0,-1 0,0 0,0 0,-1 -1,0 -1,0 -1,0l0 0z"/>
    <path class="fil1" d="M161 285c-1,0 -2,0 -3,1 -1,0 -1,1 -1,1 0,1 1,2 2,1 1,0 2,0 3,-1 1,0 1,-1 1,-1 0,-1 -1,-1 -1,-1l-1 0z"/>
    <path class="fil1" d="M87 293l0 0 0 0 0 0zm-3 -1c0,1 0,1 0,1 1,1 3,1 4,2 1,0 2,0 3,1 1,0 1,-1 1,-1 0,0 0,-1 0,-1 -2,0 -3,-1 -5,-1l1 0 -1 0 0 0 0 0c0,0 -1,-1 -2,-1l0 0c-1,0 -1,0 -1,0z"/>
    <path class="fil2" d="M198 5c-6,0 -12,1 -18,3 -6,2 -13,5 -20,10 -7,5 -14,10 -19,14 -3,2 -6,5 -9,7 -3,2 -5,4 -8,7 -7,5 -14,10 -20,15 -3,2 -5,4 -8,6l-1 0c-10,7 -21,15 -31,23 -14,12 -25,25 -34,38 -9,12 -15,27 -19,42 -4,16 -4,31 -1,45 1,8 4,15 7,21 2,3 4,7 7,10 2,2 4,5 7,8 5,5 10,9 16,13 5,4 11,7 17,10 11,5 24,8 37,9 2,0 4,0 6,0 11,0 21,-2 31,-5 7,-2 13,-4 18,-7 6,-2 11,-6 17,-10 11,-7 20,-17 28,-28 1,-2 3,-5 5,-8 2,-4 4,-8 5,-11 3,-7 6,-16 7,-27 1,-7 1,-15 2,-22l0 -1c0,-11 1,-22 3,-33 2,-10 6,-19 9,-28l0 0 0 0c3,-8 6,-17 8,-26 1,-4 2,-7 2,-10 1,-3 1,-6 1,-9 0,-7 0,-13 -2,-19 -1,-6 -3,-11 -6,-16 -2,-3 -3,-5 -5,-7 -2,-3 -4,-5 -6,-6 -3,-2 -5,-3 -8,-5 -3,-1 -6,-2 -9,-2 -1,0 -1,0 -2,0 -1,-1 -2,-1 -4,-1 -1,0 -2,0 -3,0z"/>
    <path class="fil3" d="M194 12c-5,0 -11,1 -17,3 -6,2 -12,5 -19,10 -7,4 -13,9 -18,13 -3,2 -6,5 -9,7 -2,2 -5,4 -7,6 -7,5 -13,10 -19,14 -3,2 -6,4 -8,6l-1 0c-10,8 -20,15 -29,23 -14,11 -25,23 -33,35 -8,12 -14,26 -18,40 -3,15 -4,30 -1,43 1,8 4,14 7,20 2,4 4,7 6,10 2,2 4,4 7,7 4,5 10,9 15,13 5,3 11,7 16,9 11,5 23,8 36,9 2,0 4,0 6,0 10,0 19,-2 29,-4 6,-2 12,-4 17,-7 6,-3 11,-6 16,-9 10,-8 19,-17 27,-27 1,-3 3,-6 5,-9 2,-3 4,-7 5,-10 3,-7 5,-15 6,-25 1,-7 1,-15 2,-22l0 0c0,-11 1,-21 3,-32 2,-9 5,-18 8,-26l0 0 0 0c3,-8 6,-17 8,-25 1,-4 2,-7 2,-10 1,-3 1,-6 1,-9 0,-6 0,-12 -2,-17 -1,-6 -3,-11 -6,-16 -1,-2 -3,-5 -4,-7 -2,-2 -4,-4 -7,-5 -2,-2 -4,-3 -7,-4 -2,-1 -5,-2 -8,-3 -1,0 -2,0 -2,0 -1,0 -2,0 -4,-1 -1,0 -2,0 -3,0z"/>
    <path class="fil4" d="M214 33c-1,1 -1,2 -1,3 0,0 1,1 1,1 1,2 1,4 2,6 0,1 0,1 0,2 0,1 0,2 1,2 1,0 2,-1 2,-2 0,-2 0,-4 -1,-6 0,-1 -1,-3 -2,-5 0,-1 -1,-1 -1,-1 -1,0 -1,0 -1,0z"/>
    <path class="fil4" d="M222 38c0,0 -1,1 -1,1 1,2 1,3 1,4 1,1 1,1 2,1 1,0 1,-1 1,-1 0,-2 -1,-3 -1,-4 0,-1 -1,-1 -1,-1l-1 0z"/>
    <path class="fil4" d="M227 50c-1,0 -1,1 -1,2 0,1 0,2 1,3 0,1 0,1 0,1 1,0 1,0 2,0 0,0 0,0 1,0 0,-1 0,-1 0,-2 0,-1 -1,-2 -1,-3 0,-1 -1,-1 -2,-1l0 0z"/>
    <path class="fil4" d="M223 54c-1,0 -2,2 -1,3 0,1 0,2 0,3 0,0 0,1 0,1 0,1 0,1 1,2 0,0 1,0 1,0 1,0 2,-1 2,-2 0,-2 0,-4 -1,-5 0,-1 -1,-2 -2,-2 0,0 0,0 0,0z"/>
    <path class="fil4" d="M220 72c0,2 0,4 -1,6 0,1 0,1 1,1 0,1 1,1 1,2 1,0 2,0 2,-1 1,0 1,-1 2,-1 0,-2 0,-4 1,-6 0,-1 0,-1 -1,-2 0,-1 -1,-1 -1,-1 -1,0 -1,0 -1,0 -1,0 -2,0 -3,2z"/>
    <path class="fil4" d="M226 70c1,2 1,3 1,4 -1,1 1,2 2,2 1,0 2,-1 2,-2 0,-1 0,-2 0,-4 0,-1 -1,-2 -2,-2 -1,0 -3,1 -3,2z"/>
    <path class="fil4" d="M221 91c0,1 0,3 -1,5 0,0 0,1 1,1 0,0 0,1 1,1 1,0 2,0 2,-1 0,-2 1,-4 1,-5 0,-1 0,-2 -1,-3l-1 0c-1,0 -2,1 -2,2z"/>
    <path class="fil4" d="M214 94c0,1 0,2 0,3 0,1 0,2 1,2 0,0 1,0 2,-1 0,-1 0,-2 0,-3 0,-1 0,-2 -1,-2l0 0c-1,0 -2,1 -2,1z"/>
    <path class="fil4" d="M190 206c-1,0 -1,1 -1,2 -1,1 -2,3 -3,5 0,1 0,2 1,2 1,1 2,1 3,0 1,-3 3,-6 3,-8 1,-1 0,-3 -1,-3 0,0 0,0 0,0 -1,0 -2,1 -2,2z"/>
    <path class="fil4" d="M195 190c-1,0 -1,0 -1,1 0,1 0,3 0,5 0,0 0,1 0,1 1,0 1,1 2,1 0,0 1,-1 1,-1 0,0 1,-1 1,-1 0,-2 0,-4 0,-5 0,-1 0,-1 0,-1 -1,-1 -1,-1 -2,-1 0,0 -1,0 -1,1z"/>
    <path class="fil4" d="M201 198c0,0 0,1 -1,2 0,0 0,1 0,1 0,1 0,2 1,2 1,1 2,0 2,-1 1,-1 1,-3 1,-4 0,-1 -1,-2 -2,-2 -1,0 -1,1 -1,2z"/>
    <path class="fil4" d="M194 216c-1,1 -1,3 -2,5 0,0 0,0 0,1 0,0 -1,1 0,1 0,0 0,1 0,1 1,0 2,0 3,-1 1,-2 1,-4 2,-6 0,-1 0,-2 -1,-2l-1 0c0,0 -1,0 -1,1z"/>
    <path class="fil4" d="M181 232c-1,1 -2,2 -2,4 -1,0 -1,2 0,2 1,1 2,0 3,-1 1,-1 1,-2 2,-3 1,-1 0,-2 0,-3 -1,0 -1,0 -1,0 -1,0 -2,0 -2,1z"/>
    <path class="fil4" d="M173 226c0,1 -1,2 -2,3 -1,0 -1,2 0,2 1,1 2,1 3,0 1,0 2,-1 2,-2 1,-1 1,-1 1,-2 0,0 0,-1 -1,-1 0,0 -1,-1 -1,-1 -1,0 -1,1 -2,1z"/>
    <path class="fil4" d="M168 243l0 0 0 0zm0 0l0 0 0 0zm1 -1c0,0 -1,0 -1,1 -1,0 -2,1 -3,2 -1,0 -1,2 0,3 0,1 2,1 3,0 1,-1 3,-2 4,-3 1,-1 1,-2 0,-3 0,0 -1,-1 -1,-1 -1,0 -2,1 -2,1z"/>
    <path class="fil4" d="M156 245c-1,1 -1,1 -2,1 0,1 -1,2 0,2 0,1 1,1 2,1 0,0 1,-1 2,-1 0,-1 1,-2 0,-2 0,-1 -1,-1 -1,-1 0,0 -1,0 -1,0z"/>
    <path class="fil4" d="M154 256c-1,1 -2,1 -2,2 -1,1 -2,1 -4,2 0,0 -1,1 0,2 0,1 0,1 1,1 0,0 1,0 1,0 2,-2 4,-3 6,-5 0,0 0,-1 0,-2 0,0 -1,0 -1,0 -1,0 -1,0 -1,0z"/>
    <path class="fil4" d="M132 267c-2,0 -4,1 -5,1 -1,0 -2,1 -2,2 0,1 1,1 2,1 2,0 3,0 5,0 0,0 1,-1 1,-1 0,0 1,-1 1,-1 0,-1 -1,-1 -1,-2 0,0 -1,0 -1,0l0 0z"/>
    <path class="fil4" d="M141 258c-2,0 -3,1 -4,2 -1,0 -2,1 -1,2 0,1 1,1 2,1 1,-1 3,-1 4,-2 1,-1 1,-2 1,-2 0,-1 -1,-1 -1,-1 0,0 -1,0 -1,0 0,0 0,0 0,0z"/>
    <path class="fil4" d="M121 264c-1,0 -3,1 -5,1 -1,0 -1,1 -1,1 0,1 0,1 0,1 1,1 1,1 2,1 1,-1 3,-1 5,-1 0,0 0,0 1,-1 0,0 0,0 0,-1 0,0 0,-1 -1,-1 0,0 0,0 0,0l-1 0z"/>
    <path class="fil4" d="M102 270l0 0 0 0zm-2 0c0,0 0,1 0,1 -1,1 0,2 1,2 1,0 3,0 5,0 1,0 1,-1 1,-1 0,-1 0,-1 0,-2 -1,0 -1,0 -2,0 -1,0 -2,0 -3,0l0 0 -1 0 0 0c0,0 0,0 -1,0z"/>
    <path class="fil4" d="M81 268c-1,0 0,1 0,1 0,0 0,1 1,1 1,0 3,0 5,1 0,0 1,-1 1,-1 1,-1 0,-2 -1,-2 -1,-1 -3,-1 -5,-2l0 0c-1,0 -1,1 -1,2z"/>
    <path class="fil5" d="M161 29c-3,1 -5,2 -7,4 0,0 0,0 0,0 0,1 0,1 0,1 0,0 1,1 1,1 0,0 0,0 1,0 1,-2 3,-4 6,-5 0,0 0,-1 0,-1 0,0 0,0 -1,0l0 0c0,0 0,0 0,0z"/>
    <path class="fil5" d="M170 25c-1,1 -3,3 -5,4 -1,0 -1,1 0,2 0,0 1,1 2,0 1,-1 3,-2 5,-3 1,-1 1,-2 0,-2 0,-1 0,-1 -1,-1 0,0 0,0 -1,0z"/>
    <path class="fil5" d="M166 35c-2,1 -4,2 -6,4 0,0 -1,0 -1,1 0,1 0,1 0,2 1,0 2,1 3,0 2,-1 4,-3 6,-4 1,0 1,-2 1,-3 -1,0 -1,0 -2,-1l0 0c0,0 -1,1 -1,1z"/>
    <path class="fil5" d="M158 44c-1,0 -2,1 -3,1 -1,1 -1,2 -1,3 1,1 2,1 3,0 1,0 2,-1 3,-2 0,0 1,0 1,-1 0,0 0,-1 -1,-1 0,0 0,-1 -1,-1l0 0c0,0 -1,0 -1,1z"/>
    <path class="fil5" d="M147 44c-1,1 -2,1 -3,2 -1,0 -2,1 -2,1 -1,1 -1,2 0,3 0,0 1,0 1,0 1,0 1,0 1,0l0 0c1,-1 2,-2 3,-2 0,0 0,0 1,0 1,-1 1,-2 1,-3 0,0 -1,-1 -2,-1 0,0 0,0 0,0z"/>
    <path class="fil5" d="M126 58c-2,1 -4,3 -6,4 -1,1 -1,2 0,2 0,1 1,1 2,1 2,-2 4,-3 6,-5 1,0 1,-1 1,-2 -1,0 -1,-1 -2,-1 0,0 0,0 -1,1z"/>
    <path class="fil5" d="M129 65c-2,2 -5,3 -7,5 -1,0 -1,1 0,2 0,0 1,0 1,0 3,-2 5,-3 7,-4 1,-1 1,-2 1,-2 0,-1 -1,-1 -1,-1l0 0c-1,0 -1,0 -1,0z"/>
    <path class="fil5" d="M112 76c-1,1 -3,3 -5,4 -1,0 -1,1 0,2 0,0 1,1 2,0 1,-1 3,-2 5,-4 0,0 1,-1 0,-2 0,0 0,0 -1,0 0,0 0,0 -1,0z"/>
    <path class="fil5" d="M106 73c-2,1 -3,2 -5,3 0,1 0,1 0,2 0,0 1,0 2,0 1,-1 3,-2 4,-3 1,0 1,-1 1,-2 0,0 -1,0 -1,0 0,0 -1,0 -1,0z"/>
    <path class="fil5" d="M90 85c-2,1 -4,2 -6,3 0,1 -1,2 0,3 0,0 2,1 2,0 2,-1 4,-2 6,-3 0,-1 0,-2 0,-3 0,0 -1,0 -1,0 -1,0 -1,0 -1,0z"/>
    <path class="fil5" d="M85 99l0 0 0 0zm0 -3c-1,1 -3,2 -5,3 0,0 0,1 0,1 0,1 1,1 2,1 1,-1 2,-2 3,-2 1,0 1,-1 1,-1 1,0 1,0 1,0 0,-1 0,-1 0,-1 0,-1 -1,-1 -1,-1l-1 0z"/>
    <path class="fil5" d="M100 89c-1,0 -1,1 -2,1 -1,1 -1,1 -1,2 1,0 2,0 2,0 1,0 2,-1 3,-1 0,-1 0,-1 0,-2 0,0 -1,0 -1,0 0,0 -1,0 -1,0z"/>
    <path class="fil5" d="M65 106c-1,1 -2,1 -3,2 -1,1 -1,1 -1,1 0,0 0,1 0,1 1,0 1,0 1,0 0,0 1,0 1,0 1,-1 2,-1 3,-2l0 0c0,0 0,0 0,0 1,-1 1,-1 1,-1 -1,-1 -1,-1 -1,-1l-1 0z"/>
    <path class="fil5" d="M47 125l0 0 0 0 0 0zm0 -3c-2,2 -3,3 -5,5 0,0 0,1 0,1 1,1 2,1 2,0 1,-1 2,-2 3,-3l0 1 0 -1 0 0 0 0c1,0 1,0 1,-1 1,0 1,0 1,0 0,-1 0,-1 0,-1 -1,-1 -1,-1 -1,-1 -1,0 -1,0 -1,0z"/>
    <path class="fil6" d="M100 110c-1,0 -2,0 -3,0 -9,1 -19,3 -27,8 -4,2 -8,5 -12,8 -3,3 -6,6 -9,10 -6,8 -10,17 -13,27 0,2 -1,4 -1,7 -1,3 -1,6 -1,9 0,3 0,5 0,8 0,3 0,6 1,9 0,4 2,8 3,11 3,7 6,13 11,18 5,6 12,12 20,15 4,2 8,3 12,4 4,1 9,1 13,1 9,0 18,-1 25,-5 5,-1 9,-4 12,-6 4,-2 7,-5 11,-9 3,-3 6,-7 9,-11 3,-3 5,-7 7,-11 2,-4 3,-8 5,-13 1,-3 2,-8 2,-12 0,-4 0,-8 0,-12 0,-4 -1,-9 -2,-12 -3,-8 -8,-16 -13,-22 -3,-4 -7,-7 -11,-9 -4,-3 -8,-6 -13,-8 -5,-2 -10,-3 -15,-4 -3,-1 -7,-1 -11,-1z"/>
    <path class="fil7" d="M126 115l0 0c1,1 2,2 3,3 4,4 7,9 9,14 1,3 2,6 3,8 0,3 1,6 1,9 1,6 1,12 1,18 -1,6 -2,13 -3,18 -2,6 -5,12 -7,17 -3,6 -7,11 -11,15 -4,4 -8,8 -13,10 -2,1 -5,3 -8,4 -4,1 -7,2 -11,2 -4,1 -8,1 -12,1 -3,0 -7,0 -10,0 -3,-1 -7,-2 -10,-3 -3,-1 -5,-2 -7,-4 5,6 11,10 18,13 4,2 8,3 12,4 4,1 9,1 13,1 9,0 18,-1 25,-5 5,-1 9,-3 12,-6 4,-2 7,-5 11,-9 3,-3 6,-7 9,-11 3,-3 5,-7 7,-11 2,-4 3,-8 5,-13 1,-3 2,-8 2,-12 0,-4 0,-8 0,-12 0,-4 -1,-9 -2,-12 -3,-8 -7,-16 -13,-22 -3,-4 -7,-7 -11,-9 -4,-3 -8,-6 -13,-8l0 0 0 0z"/>
    <path class="fil7" d="M48 207c-1,0 -2,2 -1,3 2,3 4,6 6,9 1,1 3,1 3,0 1,-1 1,-2 0,-3 0,-1 -1,-2 -2,-3 -1,-2 -3,-3 -4,-5 0,-1 -1,-1 -1,-1 -1,0 -1,0 -1,0z"/>
    <path class="fil7" d="M50 195c-1,0 -2,1 -2,2 1,2 2,3 2,5 1,1 2,1 3,1 1,-1 1,-2 0,-3 0,0 0,0 0,-1 -1,-1 -1,-2 -1,-3 0,-1 -1,-1 -2,-1l0 0z"/>
    <path class="fil7" d="M63 207c-1,1 -1,2 -1,3 2,2 3,3 5,5 0,0 1,1 1,1 1,0 1,-1 2,-1 0,0 0,-1 0,-1 0,-1 0,-1 0,-1 0,-1 -1,-1 -1,-1l0 0c-1,-1 -2,-2 -3,-4l-1 0c0,0 0,-1 -1,-1l0 0c-1,0 -1,0 -1,0z"/>
    <path class="fil7" d="M68 220c-1,1 -1,3 1,3 0,1 1,1 2,2 1,0 1,0 2,0 0,0 1,-1 1,-1 0,-1 1,-1 0,-2 0,0 0,-1 -1,-1 -1,-1 -1,-1 -2,-1 -1,-1 -1,-1 -1,-1 -1,0 -2,1 -2,1z"/>
    <path class="fil7" d="M80 212c0,0 0,0 -1,1 0,0 0,1 1,1 0,1 0,1 1,1 1,1 3,1 4,1 1,0 1,0 2,0 0,0 0,-1 0,-1 1,-1 0,-2 -1,-2 -1,-1 -3,-1 -4,-2 0,0 0,0 -1,0 0,0 0,0 -1,1z"/>
    <path class="fil7" d="M92 222c-2,0 -3,0 -5,0 -1,0 -3,1 -3,3 0,1 2,2 3,2 2,0 3,0 5,0 0,0 1,0 2,-1 0,0 0,-1 0,-2 0,-1 -1,-2 -2,-2l0 0z"/>
    <path class="fil7" d="M111 207c-1,1 -3,2 -4,2 -1,1 -2,1 -4,1 -1,1 -2,2 -1,3 0,1 1,2 2,2 4,-1 7,-2 9,-4 1,-1 2,-2 1,-3 0,-1 -1,-1 -2,-1 0,0 -1,0 -1,0z"/>
    <path class="fil7" d="M97 203c-1,0 -1,0 -2,0 0,0 -1,0 -2,0 -1,0 -1,1 -1,2 0,0 0,1 1,1 2,0 3,0 4,0 1,0 2,-1 1,-2 0,0 0,-1 0,-1 -1,0 -1,0 -1,0l0 0z"/>
    <path class="fil7" d="M118 190c0,1 -1,2 -1,2 -1,1 -1,2 0,3 0,0 0,0 1,0 0,0 1,0 1,0 1,-1 1,-1 2,-2 1,-1 1,-2 0,-3 0,0 -1,0 -1,0 -1,0 -1,0 -2,0z"/>
    <path class="fil7" d="M127 194c0,1 0,1 -1,2 0,1 0,2 1,2 1,1 2,0 2,0 1,-1 1,-1 1,-2 1,-1 0,-2 0,-2 -1,0 -1,0 -1,0 -1,0 -1,0 -2,0z"/>
    <path class="fil7" d="M132 169c-1,1 -1,2 -1,4 -1,1 0,2 1,3 2,0 3,-1 3,-2 1,-1 1,-3 1,-4 1,-1 0,-2 -1,-3 -1,0 -1,0 -1,0 -1,0 -2,1 -2,2z"/>
   </g>
  </g>
 </g>
</svg>
